<?xml version="1.0" standalone="no"?>
<!DOCTYPE svg PUBLIC "-//W3C//DTD SVG 20010904//EN"
 "http://www.w3.org/TR/2001/REC-SVG-20010904/DTD/svg10.dtd">
<svg version="1.0" xmlns="http://www.w3.org/2000/svg"
 width="700.000000pt" height="700.000000pt" viewBox="0 0 700.000000 700.000000"
 preserveAspectRatio="xMidYMid meet">
<metadata>
Created by potrace 1.14, written by Peter Selinger 2001-2017
</metadata>
<g transform="translate(0.000000,700.000000) scale(0.100000,-0.100000)"
fill="#000000" stroke="none">
<path d="M0 3500 l0 -3500 3500 0 3500 0 0 3500 0 3500 -3500 0 -3500 0 0
-3500z m2360 1787 c0 -343 3 -679 7 -746 l6 -122 72 138 c120 232 238 396 414
576 368 376 823 608 1361 692 125 19 502 22 631 5 109 -15 282 -50 292 -59 4
-4 -6 -46 -23 -92 -91 -246 -128 -501 -134 -914 -1 -100 -3 -120 -16 -118 -8
1 -60 14 -115 29 -94 27 -111 28 -300 28 -183 0 -208 -2 -296 -26 -364 -98
-635 -313 -800 -632 -97 -187 -140 -361 -141 -566 -1 -209 40 -379 138 -570
121 -236 298 -413 534 -534 185 -95 356 -136 565 -136 149 0 259 18 395 66
196 68 316 141 461 281 73 71 99 90 106 81 6 -7 32 -51 58 -98 163 -290 363
-543 561 -711 l87 -73 -64 -59 c-99 -90 -284 -227 -394 -292 -415 -244 -918
-363 -1380 -326 -841 68 -1559 543 -1941 1284 l-71 138 -6 -122 c-4 -67 -7
-376 -7 -686 l0 -563 -622 0 c-343 0 -640 3 -660 6 l-38 7 0 2368 0 2369 660
0 660 0 0 -623z"/>
</g>
</svg>
