<svg width="540" height="540" viewBox="0 0 540 540" fill="none" xmlns="http://www.w3.org/2000/svg">
<rect width="540" height="540" fill="#403FFC"/>
<path fill-rule="evenodd" clip-rule="evenodd" d="M80 266.544C80 366.943 80.1115 449.377 80.2483 449.733C80.4713 450.315 85.3583 450.377 131.405 450.377H182.316V397.624C182.316 367.002 182.469 344.778 182.681 344.647C182.881 344.523 183.659 345.75 184.409 347.374C191.698 363.153 200.084 376.451 210.97 389.499C219.079 399.216 225.249 405.207 238.365 416.093C240.566 417.92 253.871 427.147 254.304 427.147C254.389 427.147 255.698 427.936 257.213 428.9C260.999 431.31 264.899 433.456 269.956 435.916C273.672 437.724 276.451 438.972 284.019 442.238C289.553 444.625 305.137 449.317 312.961 450.95C319.328 452.279 324.478 453.167 328.654 453.653C354.222 456.633 377.686 454.7 403.047 447.527C414.214 444.368 430.924 437.335 440.753 431.658C441.986 430.945 443.315 430.26 443.708 430.134C444.1 430.008 444.421 429.743 444.421 429.545C444.421 429.347 444.61 429.185 444.84 429.185C445.201 429.185 449.989 426.328 451.147 425.422C451.372 425.247 453.573 423.709 456.04 422.005C463.994 416.508 470.182 411.458 476.987 404.906L480 402.006L478.473 400.822C469.019 393.496 460.866 385.453 452.676 375.372C448.433 370.15 439.53 357.754 439.53 357.07C439.53 356.872 439.385 356.65 439.208 356.575C439.031 356.5 437.41 354.055 435.604 351.141C431.926 345.201 430.486 342.714 427.056 336.381C424.961 332.51 425.14 332.546 422.544 335.477C409.333 350.393 392.674 360.165 371.864 365.204C360.695 367.909 345.685 368.217 334.361 365.973C331.088 365.324 327 364.385 325.597 363.958C321.834 362.814 317.692 361.409 316.568 360.897C315.862 360.575 315.16 360.311 315.01 360.311C314.859 360.311 312.869 359.426 310.587 358.344C277.085 342.458 255.685 308.692 255.688 271.718C255.689 264.327 257.202 252.989 258.958 247.22C260.579 241.889 262.025 237.557 262.697 236.012C265.487 229.597 270.23 220.874 272.89 217.265C286.587 198.674 302.624 186.988 323.151 180.638C327.173 179.394 327.926 179.208 333.952 177.961C345.07 175.661 361.382 175.907 371.456 178.527C372.241 178.731 374.167 179.209 375.736 179.587C377.306 179.967 379.887 180.713 381.473 181.247C383.06 181.781 384.435 182.217 384.53 182.218C384.626 182.218 384.645 177.862 384.572 172.539C384.382 158.552 385.543 141.547 387.39 131.274C389.926 117.163 392.591 107.306 396.311 98.2892C396.989 96.6451 397.545 95.1643 397.545 94.9999C397.545 94.8355 395.113 94.1436 392.143 93.4628C383.962 91.5893 382.89 91.4072 369.622 89.6384C364.249 88.9212 337.503 88.8881 333.138 89.5921C331.458 89.8624 327.881 90.381 325.19 90.7429C314.877 92.1299 304.013 94.6876 292.987 98.3256C290.97 98.992 288.951 99.6872 288.503 99.8703C287.475 100.292 284.936 101.264 282.712 102.09C278.783 103.548 270.382 107.504 264.656 110.592C255.585 115.486 243.774 123.159 238.365 127.672C237.916 128.046 236.173 129.49 234.492 130.882C225.874 138.014 216.095 147.863 209.622 155.93C208.183 157.724 206.901 159.282 206.773 159.395C206.351 159.762 202.185 165.623 199.158 170.107C193.575 178.374 189.022 186.582 184.14 197.17C183.501 198.558 182.828 199.602 182.647 199.489C182.465 199.377 182.316 173.346 182.316 141.643V84H131.158H80V266.544Z" fill="#F9F9F9"/>
</svg>
